PathFileType	4	(X/Y/Z)	D:\telocate\uwb03-Unnamed.trc
DataRate	CameraRate	NumFrames	NumMarkers	Units	OrigDataRate	OrigDataStartFrame	OrigNumFrames
100.00	100.00	      172	0	mm	100.00	6231	      9968
Frame#	Time	
		

6231	62.300	-1544.81104	292.93637	1215.32532	
6232	62.310	-1544.46558	288.06036	1215.22070	
6233	62.320	-1544.03552	283.74643	1214.41919	
6234	62.330	-1544.10095	278.70755	1214.11938	
6235	62.340	-1543.72815	274.30746	1213.99194	
6236	62.350	-1543.34131	269.45285	1213.99097	
6237	62.360	-1543.25220	263.76477	1214.65686	
6238	62.370	-1543.40405	256.69391	1215.36609	
6239	62.380	-1543.24268	248.19084	1215.21106	
6240	62.390	-1543.30701	239.60748	1215.55554	
6241	62.400	-1542.72778	231.42838	1216.06653	
6242	62.410	-1542.26501	223.82825	1216.21326	
6243	62.420	-1542.55908	216.42018	1217.11230	
6244	62.430	-1542.07263	209.36168	1217.36853	
6245	62.440	-1541.51892	202.39772	1217.72156	
6246	62.450	-1540.62134	195.39862	1217.58533	
6247	62.460	-1539.76001	187.93944	1217.85767	
6248	62.470	-1539.06763	180.71234	1218.02271	
6249	62.480	-1538.39148	174.19623	1218.29749	
6250	62.490	-1537.73828	168.27954	1218.42285	
6251	62.500	-1537.32178	163.33537	1218.69629	
6252	62.510	-1536.68164	157.39084	1218.85474	
6253	62.520	-1536.04333	151.82629	1218.97754	
6254	62.530	-1535.37988	147.37363	1218.81824	
6255	62.540	-1534.82495	142.90714	1218.74780	
6256	62.550	-1534.32166	138.51305	1218.51892	
6257	62.560	-1533.44312	135.17766	1217.45386	
6258	62.570	-1532.58264	130.74663	1217.33521	
6259	62.580	-1532.21570	126.02815	1218.07727	
6260	62.590	-1531.60876	121.10005	1217.80884	
6261	62.600	-1530.85693	114.66550	1217.67822	
6262	62.610	-1530.02917	107.10976	1217.75513	
6263	62.620	-1528.99670	99.50974	1217.40198	
6264	62.630	-1527.87830	91.62215	1217.42090	
6265	62.640	-1526.45276	84.36847	1217.10522	
6266	62.650	-1525.44397	77.78589	1217.15894	
6267	62.660	-1524.36255	71.14770	1216.99390	
6268	62.670	-1523.06665	65.17687	1216.67175	
6269	62.680	-1521.69702	58.73910	1216.45251	
6270	62.690	-1520.73779	52.89548	1216.27100	
6271	62.700	-1520.04883	47.62256	1216.68127	
6272	62.710	-1518.89941	42.50187	1216.83228	
6273	62.720	-1517.55566	37.25333	1217.17627	
6274	62.730	-1516.42615	32.79812	1217.58179	
6275	62.740	-1515.24683	27.65104	1218.10388	
6276	62.750	-1513.74670	23.51169	1218.53955	
6277	62.760	-1512.55212	19.13705	1219.57239	
6278	62.770	-1510.94958	14.34633	1219.96680	
6279	62.780	-1509.76892	10.64595	1220.83130	
6280	62.790	-1508.43689	6.10919	1221.70776	
6281	62.800	-1507.49719	2.54973	1222.38464	
6282	62.810	-1506.19397	-1.58185	1223.25146	
6283	62.820	-1505.09900	-5.30797	1223.38000	
6284	62.830	-1504.06531	-9.16458	1223.95459	
6285	62.840	-1503.00073	-13.12978	1224.26489	
6286	62.850	-1501.80920	-16.23973	1224.68408	
6287	62.860	-1500.24109	-19.60345	1224.84082	
6288	62.870	-1498.92737	-23.24157	1225.33447	
6289	62.880	-1497.66223	-26.61026	1224.95288	
6290	62.890	-1496.56189	-30.43637	1225.62158	
6291	62.900	-1494.97632	-33.89607	1225.89502	
6292	62.910	-1493.44812	-37.88553	1225.68042	
6293	62.920	-1492.04065	-41.63327	1226.13647	
6294	62.930	-1490.66882	-45.54358	1225.87305	
6295	62.940	-1489.23267	-49.28463	1226.06458	
6296	62.950	-1488.00769	-53.60867	1226.30371	
6297	62.960	-1486.46338	-57.32155	1225.61096	
6298	62.970	-1485.00769	-61.73001	1225.71094	
6299	62.980	-1483.71814	-66.32016	1226.17285	
6300	62.990	-1482.02954	-70.37608	1225.58228	
6301	63.000	-1480.79993	-75.29919	1225.59668	
6302	63.010	-1479.58264	-79.77981	1225.67773	
6303	63.020	-1478.18896	-84.33772	1225.82324	
6304	63.030	-1476.80444	-89.20660	1225.85828	
6305	63.040	-1475.25671	-94.09341	1225.75256	
6306	63.050	-1473.90100	-98.97900	1226.06445	
6307	63.060	-1472.51636	-104.25250	1226.10034	
6308	63.070	-1471.12927	-109.49760	1226.24365	
6309	63.080	-1470.09082	-114.37678	1226.31677	
6310	63.090	-1468.32104	-119.73307	1225.98071	
6311	63.100	-1467.45178	-125.05668	1226.44934	
6312	63.110	-1466.25549	-130.40517	1226.06470	
6313	63.120	-1464.97302	-136.22488	1225.76978	
6314	63.130	-1463.81104	-141.48465	1225.05005	
6315	63.140	-1462.68799	-147.39867	1224.54187	
6316	63.150	-1462.19653	-153.26721	1224.68713	
6317	63.160	-1461.40552	-159.20226	1223.86316	
6318	63.170	-1461.13123	-165.32608	1223.54211	
6319	63.180	-1460.49634	-171.78854	1223.18481	
6320	63.190	-1460.10571	-178.21652	1222.69800	
6321	63.200	-1459.65857	-184.30470	1221.97827	
6322	63.210	-1459.57214	-191.00156	1221.56116	
6323	63.220	-1459.48682	-197.69159	1220.90527	
6324	63.230	-1459.35095	-204.67828	1220.62366	
6325	63.240	-1459.56897	-211.62022	1220.52966	
6326	63.250	-1459.79602	-218.08749	1220.15356	
6327	63.260	-1459.70361	-225.17043	1219.68213	
6328	63.270	-1460.16589	-232.26588	1219.74622	
6329	63.280	-1460.06360	-239.53625	1219.11755	
6330	63.290	-1460.30261	-246.28094	1219.59729	
6331	63.300	-1460.28113	-254.02777	1220.48743	
6332	63.310	-1460.61548	-263.92911	1221.56384	
6333	63.320	-1460.86365	-275.89594	1222.16943	
6334	63.330	-1461.01282	-287.65100	1222.73523	
6335	63.340	-1461.50403	-299.87491	1223.48083	
6336	63.350	-1462.03406	-311.31439	1223.88525	
6337	63.360	-1462.09558	-321.37793	1224.13867	
6338	63.370	-1461.96582	-330.53680	1224.36182	
6339	63.380	-1461.84741	-340.42554	1224.70703	
6340	63.390	-1461.52136	-349.50317	1225.09326	
6341	63.400	-1461.44312	-358.46426	1225.52344	
6342	63.410	-1461.91614	-365.81299	1225.88696	
6343	63.420	-1462.50427	-373.01581	1226.56421	
6344	63.430	-1463.31738	-380.56995	1227.57446	
6345	63.440	-1463.91724	-386.88538	1228.07446	
6346	63.450	-1464.06519	-395.43170	1229.05652	
6347	63.460	-1464.49207	-401.07571	1229.51685	
6348	63.470	-1465.22253	-406.88467	1230.20471	
6349	63.480	-1466.44873	-411.48248	1230.83508	
6350	63.490	-1467.22290	-416.53940	1231.06116	
6351	63.500	-1467.97266	-422.29285	1231.57874	
6352	63.510	-1468.83020	-427.62381	1232.32019	
6353	63.520	-1469.81567	-432.53760	1232.74097	
6354	63.530	-1470.50537	-438.40402	1233.35962	
6355	63.540	-1471.53735	-442.79477	1233.56396	
6356	63.550	-1472.80701	-447.66174	1234.40222	
6357	63.560	-1474.02600	-451.78162	1234.44116	
6358	63.570	-1474.80981	-456.03244	1235.10974	
6359	63.580	-1475.93237	-460.19455	1235.93677	
6360	63.590	-1476.81055	-464.36200	1236.26587	
6361	63.600	-1477.75989	-469.14749	1236.45105	
6362	63.610	-1478.28894	-473.80786	1237.11731	
6363	63.620	-1478.71045	-478.74716	1236.96301	
6364	63.630	-1479.25159	-483.33380	1236.87708	
6365	63.640	-1479.74500	-488.75772	1237.18530	
6366	63.650	-1479.25562	-494.82217	1237.03638	
6367	63.660	-1480.48779	-499.18271	1237.41235	
6368	63.670	-1479.83911	-505.80133	1236.46997	
6369	63.680	-1480.43640	-511.67776	1236.93323	
6370	63.690	-1480.48621	-515.46869	1236.16296	
6371	63.700	-1480.38989	-521.91644	1235.98352	
6372	63.710	-1480.60632	-528.16956	1236.49744	
6373	63.720	-1479.93164	-533.73456	1235.56482	
6374	63.730	-1479.42554	-540.76013	1235.90222	
6375	63.740	-1479.28662	-546.36456	1235.56689	
6376	63.750	-1478.77625	-552.97009	1235.73865	
6377	63.760	-1478.15076	-558.89331	1235.57544	
6378	63.770	-1478.02734	-564.92395	1235.39465	
6379	63.780	-1477.19604	-571.75140	1235.53796	
6380	63.790	-1476.17859	-578.35242	1235.15125	
6381	63.800	-1476.54321	-584.10846	1235.49194	
6382	63.810	-1475.43298	-591.03400	1235.09412	
6383	63.820	-1474.25330	-597.03406	1234.25134	
6384	63.830	-1473.78198	-602.75055	1233.77161	
6385	63.840	-1473.17078	-609.39349	1233.64514	
6386	63.850	-1472.63672	-615.37378	1233.16382	
6387	63.860	-1472.13416	-621.39807	1233.00513	
6388	63.870	-1471.63904	-627.59436	1233.03174	
6389	63.880	-1471.78186	-632.49438	1232.71497	
6390	63.890	-1471.36670	-638.15894	1232.49048	
6391	63.900	-1470.32324	-644.82849	1232.18982	
6392	63.910	-1470.08350	-651.66223	1232.53308	
6393	63.920	-1470.44019	-655.85547	1231.89673	
6394	63.930	-1469.25818	-662.47760	1231.45105	
6395	63.940	-1469.35962	-667.39154	1231.72583	
6396	63.950	-1469.21228	-673.48486	1231.28369	
6397	63.960	-1468.77222	-678.22620	1230.82727	
6398	63.970	-1468.16907	-683.91400	1230.55505	
6399	63.980	-1468.18091	-689.93274	1230.52502	
6400	63.990	-1466.79944	-696.50940	1229.96350	
6401	64.000	-1467.17383	-701.50385	1230.26941	
6402	64.010	-1466.41455	-706.96252	1229.81128	
